<svg xmlns="http://www.w3.org/2000/svg" width="247.65" height="98.29" viewBox="0 0 247.65 98.29"><title>logo</title><g id="Layer_2" data-name="Layer 2"><g id="Layer_1-2" data-name="Layer 1"><path d="M43.12,82.73h1.82l4.75,10.93,4.75-10.93h1.73v13H55V84.27h0l-5,11.48h-.53l-5-11.48h0V95.75H43.12Z" style="fill:#999899"/><path d="M61,82.73h4c6.77,0,7,5.55,7,6.51s-.28,6.51-7,6.51H61Zm1.21,11.92h2.5c3.46,0,6.15-1.67,6.15-5.41s-2.69-5.41-6.15-5.41h-2.5Z" style="fill:#999899"/><path d="M81.33,82.73h3.75c1.84,0,4.2.72,4.2,3.44,0,2.35-1.88,3.4-3.92,3.4H82.54v6.18H81.33Zm1.21,5.74H85.3c1.38,0,2.76-.59,2.76-2.3s-1.43-2.34-2.83-2.34H82.54Z" style="fill:#999899"/><path d="M96.08,82.73h1.25l5.48,13h-1.36L100,92.29h-6.9l-1.47,3.46H90.39Zm.57,1.32-3,7.14h6Z" style="fill:#999899"/><path d="M106.25,82.73h3.42c1,0,4.64,0,4.64,3.42,0,2.48-1.9,3.16-3.33,3.35l3.79,6.25h-1.38l-3.66-6.18h-2.26v6.18h-1.21Zm1.21,5.74H110c2.56,0,3.05-1.42,3.05-2.32s-.5-2.32-3.05-2.32h-2.58Z" style="fill:#999899"/><path d="M121.71,83.83h-4.45v-1.1h10.12v1.1h-4.45V95.75h-1.21Z" style="fill:#999899"/><path d="M130.95,82.73h1.21v13h-1.21Z" style="fill:#999899"/><path d="M140.18,83.83h-4.45v-1.1h10.12v1.1H141.4V95.75h-1.21Z" style="fill:#999899"/><path d="M149.41,82.73h1.21v13h-1.21Z" style="fill:#999899"/><path d="M161.65,82.4a6.84,6.84,0,1,1-6.73,6.84A6.52,6.52,0,0,1,161.65,82.4Zm0,12.58c3.4,0,5.52-2.5,5.52-5.74S165,83.5,161.65,83.5s-5.52,2.5-5.52,5.74S158.24,95,161.65,95Z" style="fill:#999899"/><path d="M172.66,82.73h1.56l7.93,11.4h0V82.73h1.21v13h-1.56l-7.93-11.4h0v11.4h-1.21Z" style="fill:#999899"/><path d="M188.89,93.34a3.29,3.29,0,0,0,3,1.64,2.65,2.65,0,0,0,2.93-2.56c0-3.64-6.72-1.51-6.72-6.46,0-2.32,2-3.57,4.18-3.57A4.23,4.23,0,0,1,195.8,84l-1,.75a2.92,2.92,0,0,0-2.54-1.29c-1.56,0-2.93.81-2.93,2.47,0,3.92,6.71,1.56,6.71,6.46,0,2.35-1.93,3.66-4,3.66a4.89,4.89,0,0,1-4.23-2Z" style="fill:#999899"/><path d="M198.84,94.09h1.29l-1.42,4.19h-1.09Z" style="fill:#999899"/><path d="M208.42,82.73h1.21v13h-1.21Z" style="fill:#999899"/><path d="M214.76,82.73h1.56l7.93,11.4h0V82.73h1.21v13h-1.56L216,84.35h0v11.4h-1.21Z" style="fill:#999899"/><path d="M241.36,93.71a5.66,5.66,0,0,1-4.84,2.37,6.84,6.84,0,0,1,0-13.68,5.42,5.42,0,0,1,4.49,2l-1,.83a4.16,4.16,0,0,0-3.5-1.77c-3.4,0-5.52,2.5-5.52,5.74S233.12,95,236.52,95a4.7,4.7,0,0,0,3.85-2Z" style="fill:#999899"/><path d="M245.76,94.09a.88.88,0,1,1-.88.88A.87.87,0,0,1,245.76,94.09Z" style="fill:#999899"/><polygon points="117.16 52.17 122.21 55.41 124.35 46.83 119.3 43.6 117.16 52.17" style="fill:none"/><polygon points="68.3 32.8 67.36 36.54 68.57 37.31 68.3 32.8" style="fill:none"/><path d="M227.78,16.71c-2.19-1.47-6.48-2.19-13.1-2.19h-1.12l-4.83,18.61h1.87c5.92,0,10-.45,12.48-1.39a10.45,10.45,0,0,0,6.59-7.64C230.8,19.76,229.26,17.68,227.78,16.71Z" style="fill:none"/><path d="M150.66,16.84,142.14,51c7.78-.18,13.64-1.53,17.46-4,4-2.63,6.83-7,8.34-13.08s1.35-10.21-.45-12.47C165.16,18.5,159.51,17,150.66,16.84Z" style="fill:none"/><polygon points="91.18 25.61 87.1 32.88 99.43 40.8 103.55 33.52 91.18 25.61" style="fill:#999899"/><polygon points="68.3 32.8 68.57 37.31 92.65 52.77 96.63 45.74 53.91 18.32 51.85 26.58 67.36 36.54 68.3 32.8" style="fill:#999899"/><polygon points="84.06 21.05 57.47 4.04 55.36 12.52 84.68 31.33 84.06 21.05" style="fill:#999899"/><polygon points="103.61 33.56 101.48 42.11 117.16 52.17 119.3 43.6 103.61 33.56" style="fill:#999899"/><polygon points="82.8 0.03 61.72 0.03 83.64 14.05 82.8 0.03" style="fill:#999899"/><polygon points="97.97 56.19 113.65 66.25 115.71 57.98 100.04 47.92 97.97 56.19" style="fill:#999899"/><polygon points="96.53 62 95.26 67.07 94.97 68.21 97 68.21 106.2 68.21 96.53 62" style="fill:#999899"/><polygon points="49.26 36.98 41.47 68.21 59.47 68.21 64.73 47.1 65.92 42.35 50.4 32.39 49.26 36.98" style="fill:#999899"/><polygon points="69 44.33 69.35 50.12 70.45 68.21 83.92 68.21 87.45 61.96 89.86 57.72 69 44.33" style="fill:#999899"/><polygon points="130.16 0.03 105.55 0.03 93.96 20.66 120.74 37.79 130.16 0.03" style="fill:#999899"/><path d="M184.42,10c-4.52-6.63-12.95-10-25-10H136L125.8,41l37.11,23.74a38.4,38.4,0,0,0,5.1-2.66,39.6,39.6,0,0,0,13-13.43,51.84,51.84,0,0,0,5.69-14.08C189.26,24.25,188.5,16,184.42,10ZM167.94,33.92c-1.51,6-4.32,10.45-8.34,13.08-3.81,2.49-9.68,3.84-17.46,4l8.52-34.18c8.85.12,14.5,1.66,16.82,4.6C169.28,23.71,169.44,27.9,167.94,33.92Z" style="fill:#999899"/><path d="M122.21,55.41l19.95,12.8h3A47.78,47.78,0,0,0,155.91,67L124.35,46.83Z" style="fill:#999899"/><polygon points="119.02 68.21 131.66 68.21 120.77 61.22 119.02 68.21" style="fill:#999899"/><path d="M244.81,7.12C241.27,2.39,234.43,0,224.48,0H200.77L183,68.24H202.6l5.44-21c10.63-.11,19-1.74,24.82-4.86,6.86-3.68,11.5-10,13.78-18.78C248.44,16.72,247.82,11.16,244.81,7.12Zm-15.14,17a10.45,10.45,0,0,1-6.59,7.65c-2.48.93-6.56,1.39-12.48,1.39h-1.87l4.83-18.61h1.12c6.62,0,10.9.72,13.1,2.19C229.26,17.68,230.8,19.76,229.67,24.1Z" style="fill:#81bd41"/><polygon points="103.69 33.27 103.55 33.52 103.61 33.56 103.69 33.27" style="fill:#8dc63f"/><polygon points="57.47 4.04 58.47 0.03 51.2 0.03 57.47 4.04" style="fill:#81bd41"/><polygon points="53.91 18.32 55.36 12.52 35.9 0.03 25.4 0.03 53.91 18.32" style="fill:#81bd41"/><polygon points="50.4 32.39 51.85 26.58 10.49 0.03 0 0.03 50.4 32.39" style="fill:#81bd41"/><rect x="41.47" y="75.29" width="206.18" height="1.02" style="fill:#81bd41"/></g></g></svg>