<svg xmlns="http://www.w3.org/2000/svg" width="221.62" height="87.96" viewBox="0 0 221.62 87.96"><defs><clipPath id="a" transform="translate(-471 -358.04)"><path fill="none" d="M471 358.04h222.33V446H471z"/></clipPath></defs><title>mdp-logo</title><path fill="#999799" d="M38.6 74.03h1.62l4.25 9.78 4.25-9.77h1.55V85.7h-1.1V75.4h-.02L44.7 85.7h-.48l-4.5-10.28h-.04V85.7h-1.1V74.02z"/><g clip-path="url(#a)"><path fill="#999799" d="M54.6 74.03h3.6c6.06 0 6.3 5 6.3 5.83s-.24 5.83-6.3 5.83h-3.6zm1.08 10.67h2.24c3.1 0 5.5-1.5 5.5-4.84s-2.4-4.84-5.5-4.84h-2.24zM72.78 74.03h3.36c1.65 0 3.75.64 3.75 3.08 0 2.12-1.7 3-3.52 3h-2.52v5.54h-1.1zm1.1 5.14h2.46c1.23 0 2.47-.53 2.47-2.06s-1.27-2.08-2.52-2.08h-2.4zM86 74.03h1.12L92 85.7h-1.22l-1.27-3.1h-6.16L82 85.7h-1.14zm.5 1.18l-2.7 6.4h5.34zM95.08 74.03h3.06c.92 0 4.15 0 4.15 3.06 0 2.2-1.7 2.82-3 3l3.38 5.6h-1.24l-3.28-5.54h-2v5.53h-1.1zm1.1 5.14h2.3c2.28 0 2.72-1.27 2.72-2.07s-.44-2.07-2.73-2.07h-2.3zM108.92 75.02h-3.98v-1H114v1h-4V85.7h-1.08V75zM117.2 74.03h1.08v11.65h-1.1zM125.45 75.02h-3.98v-1h9.05v1h-3.98V85.7h-1.1V75zM133.7 74.03h1.1v11.65h-1.1zM144.66 73.74a6.12 6.12 0 1 1-6 6.12 5.83 5.83 0 0 1 6-6.12m0 11.26a5.14 5.14 0 1 0-4.94-5.14 4.8 4.8 0 0 0 4.94 5.14"/><path fill="#999799" d="M154.52 74.03h1.4l7.1 10.2h.03v-10.2h1.08V85.7h-1.4l-7.1-10.22h-.03v10.2h-1.08V74.04zM169 83.53a2.94 2.94 0 0 0 2.7 1.43 2.37 2.37 0 0 0 2.62-2.3c0-3.25-6-1.34-6-5.77 0-2.08 1.78-3.2 3.74-3.2a3.8 3.8 0 0 1 3.18 1.46l-.94.68a2.6 2.6 0 0 0-2.27-1.15c-1.4 0-2.62.72-2.62 2.2 0 3.5 6 1.4 6 5.78a3.34 3.34 0 0 1-3.6 3.28 4.38 4.38 0 0 1-3.8-1.76zM177.94 84.2h1.15l-1.27 3.76h-.98l1.1-3.75zM186.52 74.03h1.1v11.65h-1.1zM192.2 74.03h1.4l7.1 10.2h.02v-10.2h1.1V85.7h-1.4l-7.1-10.22h-.04v10.2h-1.1V74.04zM216 83.86a5.07 5.07 0 0 1-4.33 2.12 6.12 6.12 0 0 1 0-12.25 4.86 4.86 0 0 1 4 1.83l-.9.74a3.72 3.72 0 0 0-3.12-1.58 5.14 5.14 0 0 0 0 10.27 4.2 4.2 0 0 0 3.44-1.82zM219.93 84.2a.8.8 0 1 1-.8.8.78.78 0 0 1 .8-.8"/><path fill="#999799" d="M81.6 22.92l-3.65 6.5 11.03 7.1 3.7-6.52-11.08-7.08zM61.12 29.35l.25 4.04 21.55 13.83 3.56-6.3L48.24 16.4l-1.84 7.4 13.9 8.9.82-3.35zM75.23 18.84L51.43 3.62l-1.9 7.58L75.8 28.04l-.55-9.2zM92.73 30.04l-1.9 7.65 14.02 9 1.9-7.68-14.02-8.98zM74.1.03H55.23l19.6 12.55L74.1.03zM87.68 50.28l14.02 9 1.85-7.4-14.03-9-1.84 7.4zM86.38 55.48l-1.13 4.54-.25 1.02h10.05l-8.67-5.56zM44.08 33.1L37.1 61.03h16.12l4.7-18.9L59 37.9l-13.9-8.92-1.02 4.1zM61.75 39.67l.3 5.18 1 16.2H75.1l3.16-5.6 2.15-3.8-18.65-11.98zM116.48.03H94.45L84.1 18.5l23.96 15.32 8.42-33.8zM165 8.96C161 3.02 153.4.02 142.6.02h-20.9l-9.15 36.7 33.24 21.24a34.45 34.45 0 0 0 4.56-2.38 35.45 35.45 0 0 0 11.62-12 46.4 46.4 0 0 0 5.1-12.6c2.3-9.26 1.62-16.66-2-22M150.3 30.36c-1.35 5.4-3.86 9.35-7.47 11.7-3.4 2.24-8.66 3.45-15.62 3.6l7.63-30.58c7.92.1 13 1.5 15.05 4.12 1.62 2 1.76 5.78.42 11.16"/><path fill="#999799" d="M109.37 49.6l17.85 11.44h2.72a42.73 42.73 0 0 0 9.58-1.06L111.3 41.96zM106.52 61.04h11.3l-9.74-6.25-1.56 6.24z"/><path fill="#80bc41" d="M219.1 6.37C215.9 2.14 209.8 0 200.9 0h-21.23L163.8 61.07h17.5l4.88-18.76c9.5-.08 17-1.55 22.2-4.34 6.15-3.3 10.3-8.95 12.34-16.8 1.6-6.2 1.06-11.17-1.63-14.78m-13.56 15.2a9.35 9.35 0 0 1-5.9 6.84c-2.22.83-5.87 1.24-11.17 1.24h-1.67l4.32-16.7h1c5.93 0 9.76.64 11.72 2 1.32.87 2.7 2.73 1.7 6.6"/><path fill="#8bc53f" d="M92.8 29.77l-.13.23.06.04.06-.27z"/><path fill="#80bc41" d="M51.43 3.62l.9-3.6h-6.5l5.6 3.6zM48.24 16.4l1.3-5.2L32.12.03h-9.4L48.25 16.4zM45.1 28.98l1.3-5.2L9.4.04H0l45.1 28.95zM37.1 67.38h184.52v.9H37.12z"/></g></svg>