<svg id="b7f5fb91-dea4-4a35-a94b-91dabfe11b7b" data-name="Layer 1" xmlns="http://www.w3.org/2000/svg" xmlns:xlink="http://www.w3.org/1999/xlink" width="221.62" height="87.96" viewBox="0 0 221.62 87.96"><defs><clipPath id="fca3448b-a6b8-477d-bd09-c89c3f22e43e" transform="translate(-471 -358.04)"><rect x="471" y="358.04" width="222.33" height="87.96" style="fill:none"/></clipPath></defs><title>mdp-logo-redux</title><polygon points="38.59 74.03 40.22 74.03 44.47 83.81 48.72 74.03 50.27 74.03 50.27 85.69 49.18 85.69 49.18 75.42 49.15 75.42 44.7 85.69 44.22 85.69 39.71 75.42 39.68 75.42 39.68 85.69 38.59 85.69 38.59 74.03" style="fill:#999799"/><g style="clip-path:url(#fca3448b-a6b8-477d-bd09-c89c3f22e43e)"><path d="M525.59,432.07h3.61c6.06,0,6.31,5,6.31,5.83s-.25,5.83-6.31,5.83h-3.61Zm1.09,10.67h2.24c3.1,0,5.5-1.5,5.5-4.84s-2.4-4.84-5.5-4.84h-2.24Z" transform="translate(-471 -358.04)" style="fill:#999799"/><path d="M543.78,432.07h3.36c1.65,0,3.75.64,3.75,3.08,0,2.11-1.68,3-3.51,3h-2.52v5.53h-1.09Zm1.09,5.14h2.47c1.23,0,2.47-.53,2.47-2.06s-1.28-2.09-2.53-2.09h-2.4Z" transform="translate(-471 -358.04)" style="fill:#999799"/><path d="M557,432.07h1.12L563,443.73h-1.22l-1.27-3.09h-6.17L553,443.73h-1.14Zm.51,1.18-2.72,6.39h5.35Z" transform="translate(-471 -358.04)" style="fill:#999799"/><path d="M566.08,432.07h3.06c.92,0,4.15,0,4.15,3.06,0,2.22-1.7,2.83-3,3l3.39,5.6h-1.24l-3.28-5.53h-2v5.53h-1.09Zm1.09,5.14h2.3c2.29,0,2.73-1.27,2.73-2.07s-.44-2.07-2.73-2.07h-2.3Z" transform="translate(-471 -358.04)" style="fill:#999799"/><polygon points="108.92 75.02 104.94 75.02 104.94 74.03 114 74.03 114 75.02 110.01 75.02 110.01 85.69 108.92 85.69 108.92 75.02" style="fill:#999799"/><rect x="117.19" y="74.03" width="1.09" height="11.65" style="fill:#999799"/><polygon points="125.45 75.02 121.47 75.02 121.47 74.03 130.52 74.03 130.52 75.02 126.54 75.02 126.54 85.69 125.45 85.69 125.45 75.02" style="fill:#999799"/><rect x="133.71" y="74.03" width="1.09" height="11.65" style="fill:#999799"/><path d="M615.66,431.78a6.12,6.12,0,1,1-6,6.12,5.83,5.83,0,0,1,6-6.12m0,11.26a5.14,5.14,0,1,0-4.94-5.14,4.81,4.81,0,0,0,4.94,5.14" transform="translate(-471 -358.04)" style="fill:#999799"/><polygon points="154.52 74.03 155.92 74.03 163.01 84.24 163.05 84.24 163.05 74.03 164.13 74.03 164.13 85.69 162.74 85.69 155.64 75.48 155.6 75.48 155.6 85.69 154.52 85.69 154.52 74.03" style="fill:#999799"/><path d="M640,441.57A2.94,2.94,0,0,0,642.7,443a2.37,2.37,0,0,0,2.62-2.29c0-3.26-6-1.35-6-5.78,0-2.07,1.78-3.19,3.74-3.19a3.79,3.79,0,0,1,3.18,1.46l-.94.68a2.61,2.61,0,0,0-2.27-1.15c-1.4,0-2.62.73-2.62,2.21,0,3.51,6,1.4,6,5.78a3.34,3.34,0,0,1-3.62,3.28,4.38,4.38,0,0,1-3.79-1.76Z" transform="translate(-471 -358.04)" style="fill:#999799"/><polygon points="177.94 84.21 179.09 84.21 177.83 87.96 176.85 87.96 177.94 84.21" style="fill:#999799"/><rect x="186.52" y="74.03" width="1.09" height="11.65" style="fill:#999799"/><polygon points="192.19 74.03 193.59 74.03 200.69 84.24 200.72 84.24 200.72 74.03 201.81 74.03 201.81 85.69 200.41 85.69 193.31 75.48 193.28 75.48 193.28 85.69 192.19 85.69 192.19 74.03" style="fill:#999799"/><path d="M687,441.9a5.07,5.07,0,0,1-4.33,2.12,6.12,6.12,0,0,1,0-12.25,4.86,4.86,0,0,1,4,1.83l-.89.74a3.72,3.72,0,0,0-3.13-1.58,5.14,5.14,0,0,0,0,10.27,4.2,4.2,0,0,0,3.44-1.81Z" transform="translate(-471 -358.04)" style="fill:#999799"/><path d="M690.93,442.25a.79.79,0,1,1-.79.79.78.78,0,0,1,.79-.79" transform="translate(-471 -358.04)" style="fill:#999799"/><polygon points="81.6 22.92 77.95 29.43 88.98 36.51 92.67 30 81.6 22.92" style="fill:#999799"/><polygon points="61.12 29.35 61.37 33.39 82.92 47.23 86.48 40.93 48.24 16.4 46.4 23.79 60.29 32.7 61.12 29.35" style="fill:#999799"/><polygon points="75.23 18.84 51.43 3.62 49.54 11.2 75.78 28.04 75.23 18.84" style="fill:#999799"/><polygon points="92.73 30.04 90.82 37.69 104.85 46.69 106.76 39.02 92.73 30.04" style="fill:#999799"/><polygon points="74.09 0.03 55.24 0.03 74.85 12.58 74.09 0.03" style="fill:#999799"/><polygon points="87.68 50.28 101.7 59.29 103.55 51.88 89.52 42.88 87.68 50.28" style="fill:#999799"/><polygon points="86.38 55.48 85.25 60.02 85 61.04 86.81 61.04 95.05 61.04 86.38 55.48" style="fill:#999799"/><polygon points="44.08 33.09 37.11 61.04 53.22 61.04 57.93 42.15 58.99 37.9 45.1 28.98 44.08 33.09" style="fill:#999799"/><polygon points="61.75 39.67 62.06 44.85 63.04 61.05 75.1 61.05 78.26 55.45 80.41 51.65 61.75 39.67" style="fill:#999799"/><polygon points="116.48 0.03 94.45 0.03 84.09 18.49 108.06 33.82 116.48 0.03" style="fill:#999799"/><path d="M636,367c-4-5.94-11.59-8.94-22.4-8.94h-20.9l-9.15,36.69L616.79,416a34.45,34.45,0,0,0,4.57-2.38,35.45,35.45,0,0,0,11.62-12,46.41,46.41,0,0,0,5.09-12.6c2.31-9.26,1.63-16.66-2-22m-14.75,21.38c-1.35,5.41-3.86,9.35-7.47,11.71-3.41,2.23-8.66,3.44-15.62,3.6l7.63-30.59c7.92.11,13,1.49,15.05,4.12,1.61,2,1.75,5.78.41,11.16" transform="translate(-471 -358.04)" style="fill:#999799"/><path d="M580.37,407.63l17.85,11.45h2.72a42.73,42.73,0,0,0,9.58-1.06L582.29,400Z" transform="translate(-471 -358.04)" style="fill:#999799"/><polygon points="106.52 61.04 117.83 61.04 108.08 54.79 106.52 61.04" style="fill:#999799"/><path d="M690.09,364.41c-3.17-4.23-9.3-6.37-18.19-6.37H650.67l-15.86,61.07h17.5l4.87-18.76c9.51-.09,17-1.56,22.21-4.35,6.14-3.29,10.29-8.95,12.33-16.8,1.61-6.19,1.06-11.17-1.63-14.78m-13.55,15.2a9.35,9.35,0,0,1-5.9,6.84c-2.22.83-5.87,1.24-11.17,1.24h-1.67L662.12,371h1c5.93,0,9.76.64,11.72,2,1.32.87,2.7,2.73,1.69,6.61" transform="translate(-471 -358.04)" style="fill:#80bc41"/><polygon points="92.79 29.77 92.67 30 92.73 30.04 92.79 29.77" style="fill:#8bc53f"/><polygon points="51.43 3.62 52.33 0.03 45.82 0.03 51.43 3.62" style="fill:#80bc41"/><polygon points="48.24 16.4 49.54 11.2 32.12 0.03 22.73 0.03 48.24 16.4" style="fill:#80bc41"/><polygon points="45.1 28.98 46.4 23.79 9.39 0.03 0 0.03 45.1 28.98" style="fill:#80bc41"/><rect x="37.11" y="67.38" width="184.51" height="0.91" style="fill:#80bc41"/></g></svg>